<svg width="34" height="31" viewBox="0 0 34 31" fill="none" xmlns="http://www.w3.org/2000/svg">
<path d="M17 0C17.4627 5.56494e-05 17.9092 0.154934 18.2549 0.435259C18.6007 0.715584 18.8215 1.10186 18.8757 1.52082L18.8889 1.72233V29.2796C18.8884 29.7186 18.704 30.1408 18.3735 30.46C18.043 30.7792 17.5913 30.9713 17.1107 30.997C16.6301 31.0228 16.1568 30.8802 15.7876 30.5984C15.4185 30.3167 15.1812 29.917 15.1243 29.4811L15.1111 29.2796V1.72233C15.1111 1.26554 15.3101 0.827457 15.6644 0.504458C16.0186 0.181459 16.499 0 17 0ZM9.44444 5.16699C9.9071 5.16704 10.3536 5.32192 10.6994 5.60224C11.0451 5.88257 11.266 6.26884 11.3201 6.6878L11.3333 6.88931V24.1126C11.3328 24.5516 11.1485 24.9738 10.818 25.293C10.4875 25.6122 10.0358 25.8043 9.55514 25.8301C9.07453 25.8558 8.60128 25.7132 8.23209 25.4314C7.86291 25.1497 7.62564 24.75 7.56878 24.3141L7.55556 24.1126V6.88931C7.55556 6.43252 7.75456 5.99444 8.1088 5.67144C8.46303 5.34844 8.94348 5.16699 9.44444 5.16699ZM24.5556 5.16699C25.0182 5.16704 25.4647 5.32192 25.8105 5.60224C26.1562 5.88257 26.3771 6.26884 26.4312 6.6878L26.4444 6.88931V24.1126C26.4439 24.5516 26.2596 24.9738 25.9291 25.293C25.5986 25.6122 25.1469 25.8043 24.6663 25.8301C24.1856 25.8558 23.7124 25.7132 23.3432 25.4314C22.974 25.1497 22.7368 24.75 22.6799 24.3141L22.6667 24.1126V6.88931C22.6667 6.43252 22.8657 5.99444 23.2199 5.67144C23.5741 5.34844 24.0546 5.16699 24.5556 5.16699ZM1.88889 10.334C2.35154 10.334 2.79808 10.4889 3.14381 10.7692C3.48955 11.0496 3.71043 11.4358 3.76456 11.8548L3.77778 12.0563V18.9456C3.77724 19.3846 3.5929 19.8068 3.2624 20.126C2.9319 20.4453 2.4802 20.6373 1.99959 20.6631C1.51898 20.6888 1.04573 20.5462 0.676538 20.2645C0.307349 19.9827 0.0700846 19.583 0.0132222 19.1471L0 18.9456V12.0563C0 11.5995 0.199007 11.1614 0.553243 10.8384C0.907478 10.5154 1.38792 10.334 1.88889 10.334ZM32.1111 10.334C32.5738 10.334 33.0203 10.4889 33.366 10.7692C33.7118 11.0496 33.9326 11.4358 33.9868 11.8548L34 12.0563V18.9456C33.9995 19.3846 33.8151 19.8068 33.4846 20.126C33.1541 20.4453 32.7024 20.6373 32.2218 20.6631C31.7412 20.6888 31.268 20.5462 30.8988 20.2645C30.5296 19.9827 30.2923 19.583 30.2354 19.1471L30.2222 18.9456V12.0563C30.2222 11.5995 30.4212 11.1614 30.7755 10.8384C31.1297 10.5154 31.6101 10.334 32.1111 10.334Z" fill="url(#paint0_linear_61687_3249)"/>
<defs>
<linearGradient id="paint0_linear_61687_3249" x1="-6.95661e-07" y1="0.735334" x2="39.3823" y2="11.7419" gradientUnits="userSpaceOnUse">
<stop stop-color="#FF008E"/>
<stop offset="1" stop-color="#FFCD1E"/>
</linearGradient>
</defs>
</svg>
